<?xml version="1.0" encoding="UTF-8" standalone="no"?>
<svg
   viewBox="0 0 24 24"
   id="vector"
   version="1.1"
   sodipodi:docname="add_key.svg"
   xml:space="preserve"
   inkscape:version="1.3.2 (091e20e, 2023-11-25, custom)"
   xmlns:inkscape="http://www.inkscape.org/namespaces/inkscape"
   xmlns:sodipodi="http://sodipodi.sourceforge.net/DTD/sodipodi-0.dtd"
   xmlns="http://www.w3.org/2000/svg"
   xmlns:svg="http://www.w3.org/2000/svg"><defs
     id="defs1" /><sodipodi:namedview
     id="namedview1"
     pagecolor="#ffffff"
     bordercolor="#000000"
     borderopacity="0.25"
     inkscape:showpageshadow="2"
     inkscape:pageopacity="0.0"
     inkscape:pagecheckerboard="0"
     inkscape:deskcolor="#d1d1d1"
     inkscape:zoom="23.953242"
     inkscape:cx="12.315661"
     inkscape:cy="15.509383"
     inkscape:window-width="1920"
     inkscape:window-height="1009"
     inkscape:window-x="-8"
     inkscape:window-y="-8"
     inkscape:window-maximized="1"
     inkscape:current-layer="vector" /><path
     id="path"
     d="M 10.713223,9.3111931 C 10.058635,7.4512054 8.2864577,6.1180811 6.2029521,6.1180811 c -2.6423001,0 -4.7896679,2.1473678 -4.7896679,4.7896679 0,2.6423 2.1473678,4.789668 4.7896679,4.789668 2.0835056,0 3.8556829,-1.333124 4.5102709,-3.193112 h 3.472509 v 3.193112 c 0.287003,0 -0.146251,0.0043 0.592486,0.0043 0.662368,-1.733234 2.204981,-2.868561 4.118569,-2.847515 l 0.108132,0.0043 -0.02952,-3.5473559 z M 6.2029521,12.504305 c -0.8781058,0 -1.5965559,-0.718451 -1.5965559,-1.596556 0,-0.878106 0.7184501,-1.5965559 1.5965559,-1.5965559 0.8781057,0 1.596556,0.7184499 1.596556,1.5965559 0,0.878105 -0.7184503,1.596556 -1.596556,1.596556 z"
     fill="none"
     style="fill:#000000;stroke-width:0.798278"
     sodipodi:nodetypes="csssccccccccsssss" /><path
     id="path-3"
     d="M 19.160885,15.206642 H 18.38893 v 1.543912 h -1.543912 v 0.771955 h 1.543912 v 1.543912 h 0.771955 v -1.543912 h 1.543912 v -0.771955 h -1.543912 z m -0.385978,-1.929889 c -2.130597,0 -3.859778,1.729181 -3.859778,3.859778 0,2.130598 1.729181,3.859779 3.859778,3.859779 2.130598,0 3.859779,-1.729181 3.859779,-3.859779 0,-2.130597 -1.729181,-3.859778 -3.859779,-3.859778 z m 0,6.947601 c -1.702162,0 -3.087823,-1.38566 -3.087823,-3.087823 0,-1.702162 1.385661,-3.087823 3.087823,-3.087823 1.702163,0 3.087823,1.385661 3.087823,3.087823 0,1.702163 -1.38566,3.087823 -3.087823,3.087823 z"
     fill="none"
     style="fill:#000000;stroke-width:0.385978" /></svg>
