<?xml version="1.0" encoding="UTF-8" standalone="no"?>
<svg
   viewBox="0 0 24 24"
   id="vector"
   version="1.1"
   sodipodi:docname="donate_beer.svg"
   inkscape:version="1.3.2 (091e20e, 2023-11-25, custom)"
   xml:space="preserve"
   xmlns:inkscape="http://www.inkscape.org/namespaces/inkscape"
   xmlns:sodipodi="http://sodipodi.sourceforge.net/DTD/sodipodi-0.dtd"
   xmlns="http://www.w3.org/2000/svg"
   xmlns:svg="http://www.w3.org/2000/svg"><defs
     id="defs1" /><sodipodi:namedview
     id="namedview1"
     pagecolor="#ffffff"
     bordercolor="#000000"
     borderopacity="0.25"
     inkscape:showpageshadow="2"
     inkscape:pageopacity="0.0"
     inkscape:pagecheckerboard="0"
     inkscape:deskcolor="#d1d1d1"
     inkscape:zoom="11.976621"
     inkscape:cx="-16.532209"
     inkscape:cy="17.158429"
     inkscape:window-width="1920"
     inkscape:window-height="1009"
     inkscape:window-x="-8"
     inkscape:window-y="-8"
     inkscape:window-maximized="1"
     inkscape:current-layer="vector" /><path
     d="m 18.43668,7.522128 h -1.450694 c 0.261126,-0.580277 0.406194,-0.9284433 0.406194,-1.4216791 0,-1.334638 -1.073514,-2.4371639 -2.379137,-2.4951922 -0.52225,-0.6673196 -1.334638,-1.0735142 -2.205054,-1.0735142 -0.551263,0 -1.073514,0.1450708 -1.537734,0.4352088 C 10.689977,2.4447025 9.9646292,2.0094937 9.1521632,2.0094937 c -1.1025258,0 -2.1759622,0.6963325 -2.7853313,1.5956852 -1.1315401,0.2030979 -2.0020342,1.2185825 -2.0020342,2.4080743 0,0.6673184 0.261125,1.2766095 0.7253467,1.7408312 V 19.707799 c 0,0.493236 0.3191533,0.870416 0.7833738,0.870416 h 9.9516808 c 0.493236,0 0.870416,-0.37718 0.870416,-0.870416 v -1.160555 h 1.740832 c 0.812389,0 1.450693,-0.75436 1.450693,-1.537735 V 8.8275986 c 0,-0.8123879 -0.667318,-1.305625 -1.450693,-1.305625 z m -1.740834,2.3211109 h 0.870417 V 16.226289 H 16.695846 Z M 9.1522411,2.87991 c 0.8994299,0 1.6538679,0.6092913 2.0599069,1.334638 0.348167,-0.4932359 0.928444,-0.8414021 1.595687,-0.8414021 0.696332,0 1.334636,0.3771791 1.653868,0.9574575 0.02901,0.058028 0.05803,0.087042 0.08704,0.1450696 0.116057,-0.029014 0.232111,-0.058028 0.377181,-0.058028 0.870416,0 1.595685,0.6963325 1.595685,1.5956864 0,0.5512629 -0.261125,1.0154846 -0.696333,1.3056224 -0.261125,0.1740837 -0.551264,0.2901392 -0.89943,0.2901392 -0.493235,0 -0.928444,-0.2321109 -1.218583,-0.580277 -0.261125,0.1450696 -0.580277,0.232112 -0.899429,0.232112 -0.580277,0 -1.131543,-0.2611262 -1.479708,-0.6963337 -0.406195,0.8123878 -1.247597,1.3926649 -2.2050543,1.3926649 -0.5802771,0 -1.1315413,-0.2030966 -1.5377346,-0.5512629 C 7.353227,7.5220527 7.1211162,7.6090927 6.8309782,7.6090927 6.5118249,7.6090927 6.221687,7.5220507 5.9605619,7.3479677 5.5253532,7.0578299 5.2352152,6.564594 5.2352152,6.0133311 c 0,-0.8704176 0.6963326,-1.5956864 1.5956852,-1.5956864 h 0.058028 C 6.9179429,4.3886305 6.9179429,4.3306021 6.9469571,4.301588 7.3531517,3.5472271 8.223568,2.8799087 9.1520113,2.8799087 Z M 6.8311314,8.4796646 c 0.2030967,0 0.4352088,-0.029014 0.6383054,-0.087043 0.4932346,0.2901392 1.073513,0.4352075 1.653868,0.4352075 0.9284432,0 1.7988592,-0.3771791 2.4080732,-1.0154846 0.406195,0.2030967 0.841402,0.3191521 1.305625,0.3191521 0.232111,0 0.493235,-0.029014 0.725346,-0.087043 0.406194,0.2901379 0.89943,0.4352088 1.392666,0.4352088 0.319153,0 0.609291,-0.058028 0.899431,-0.1740838 v 9.2553464 0.116057 0.290139 H 5.9606373 V 8.3054252 C 6.2217635,8.4214819 6.5119015,8.479509 6.8310548,8.479509 Z M 5.9607151,19.707953 v -1.160554 h 9.8647159 v 1.160554 z M 19.016957,17.009586 c 0,0.319153 -0.261125,0.667319 -0.580277,0.667319 H 16.695846 V 16.80649 h 0.870417 c 0.319152,0 0.580278,-0.406195 0.580278,-0.725348 V 9.6980915 c 0,-0.3191521 -0.261126,-0.4352088 -0.580278,-0.4352088 h -0.870417 v -0.870415 h 1.740834 c 0.319152,0 0.580277,0.1160567 0.580277,0.4352088 z"
     id="path4"
     style="stroke-width:0.0154741" /><g
     style="fill:none"
     id="g1"
     transform="matrix(0.40966874,0,0,0.40966874,6.107757,8.1297763)"><path
       d="M 12,5.881 C 12.981,4.729 14.484,4 16.05,4 18.822,4 21,6.178 21,8.95 c 0,3.3992 -3.055,6.1695 -7.6836,10.3667 L 13.305,19.327 12,20.515 10.695,19.336 10.6595,19.3037 C 6.04437,15.1098 3,12.3433 3,8.95 3,6.178 5.178,4 7.95,4 9.516,4 11.019,4.729 12,5.881 Z"
       fill="#000000"
       id="path1"
       style="fill:none;stroke:#000000;stroke-width:1.97720724;stroke-dasharray:none" /></g></svg>
