<?xml version="1.0" encoding="UTF-8" standalone="no"?>
<!-- Generator: Adobe Illustrator 22.0.1, SVG Export Plug-In . SVG Version: 6.00 Build 0)  -->

<svg
   xmlns:dc="http://purl.org/dc/elements/1.1/"
   xmlns:cc="http://creativecommons.org/ns#"
   xmlns:rdf="http://www.w3.org/1999/02/22-rdf-syntax-ns#"
   xmlns:svg="http://www.w3.org/2000/svg"
   xmlns="http://www.w3.org/2000/svg"
   xmlns:sodipodi="http://sodipodi.sourceforge.net/DTD/sodipodi-0.dtd"
   xmlns:inkscape="http://www.inkscape.org/namespaces/inkscape"
   version="1.1"
   id="Layer_1"
   x="0px"
   y="0px"
   viewBox="0 0 800 800"
   enable-background="new 0 0 800 800"
   xml:space="preserve"
   sodipodi:docname="Logo-green-foreground.svg"
   inkscape:version="0.92.2 (5c3e80d, 2017-08-06)"><metadata
     id="metadata4969"><rdf:RDF><cc:Work
         rdf:about=""><dc:format>image/svg+xml</dc:format><dc:type
           rdf:resource="http://purl.org/dc/dcmitype/StillImage" /><dc:title></dc:title></cc:Work></rdf:RDF></metadata><defs
     id="defs4967" /><sodipodi:namedview
     pagecolor="#ffffff"
     bordercolor="#666666"
     borderopacity="1"
     objecttolerance="10"
     gridtolerance="10"
     guidetolerance="10"
     inkscape:pageopacity="0"
     inkscape:pageshadow="2"
     inkscape:window-width="1920"
     inkscape:window-height="1017"
     id="namedview4965"
     showgrid="false"
     inkscape:zoom="0.75130096"
     inkscape:cx="413.59403"
     inkscape:cy="332.90312"
     inkscape:window-x="-8"
     inkscape:window-y="-8"
     inkscape:window-maximized="1"
     inkscape:current-layer="Layer_1" /><path
     d="m 318.7,232 c 13.6,0 24.6,10.9 24.6,24.4 0,13.5 -11,24.4 -24.6,24.4 -13.6,0 -24.6,-10.9 -24.6,-24.4 0,-13.5 11,-24.4 24.6,-24.4 z m 134.8,24.4 c 0,13.5 11,24.4 24.6,24.4 13.6,0 24.6,-10.9 24.6,-24.4 0,-13.5 -11,-24.4 -24.6,-24.4 -13.6,0 -24.6,10.9 -24.6,24.4 z M 399.8,177.7 M 140.2,600.6 v 47 h 517.3 v -47 z m 0,-249.7 v 47 h 517.3 v -47 z m -0.1,130.3 h 191.8 c -0.8,-4.1 -1.2,-8.3 -1.2,-12.4 0,-12.4 3.4,-24.2 9.9,-34.6 H 140.1 Z m 517.4,0 v -47 H 454.9 c 6.5,10.4 9.8,22.2 9.8,34.6 0,4.1 -0.4,8.3 -1.2,12.4 z m -517.4,36.2 v 47 h 186.6 l 14.3,-47 z m 314.2,0 14.4,47 h 188.8 v -47 z m -21.6,48.4 -21,-68.9 2.7,-1.6 c 10.3,-5.9 16.7,-16.9 16.7,-28.6 0,-18.2 -15,-33 -33.3,-33 -18.3,0 -33.3,14.8 -33.3,33 0,11.8 6.4,22.7 16.7,28.6 l 2.7,1.6 -21.1,68.9 z m 74.8,-407.3 0.2,-0.3 35.6,-51.3 c 2.4,-3.5 1.8,-8.1 -1.4,-10.3 -3.2,-2.2 -7.7,-1.1 -10.2,2.4 l -37.2,53.5 -0.1,0.3 c -29.3,-11.8 -62.1,-18.5 -96.8,-18.5 -35.2,0 -68.5,6.9 -98.1,19 L 261.8,99 c -2.4,-3.5 -7,-4.6 -10.2,-2.4 -3.2,2.2 -3.8,6.8 -1.4,10.3 l 36.2,52.2 c -66.8,32.2 -111.9,92.4 -111.9,161.3 h 42.9 c 0,-79.1 80.8,-143.5 180.1,-143.5 99.3,0 180.1,64.3 180.1,143.5 h 42.9 c 0.2,-69.3 -45.4,-129.8 -113,-161.9 z"
     id="path4962"
     inkscape:connector-curvature="0"
     style="clip-rule:evenodd;fill:#ffffff;fill-rule:evenodd" /></svg>