<svg id="Layer_1" data-name="Layer 1" xmlns="http://www.w3.org/2000/svg" width="24" height="24" viewBox="0 0 24 24"><path d="M8.6,7a.88.88,0,1,1-.89.88A.88.88,0,0,1,8.6,7Zm4.88.88A.89.89,0,1,0,14.37,7,.88.88,0,0,0,13.48,7.83ZM2.13,20.3V22H20.87V20.3Zm0-9V13H20.87V11.25Zm0,4.72h7A2.3,2.3,0,0,1,9,15.52a2.39,2.39,0,0,1,.36-1.25H2.13Zm18.74,0v-1.7H13.53a2.27,2.27,0,0,1,.31,1.7ZM2.13,17.28V19H8.89l.52-1.71Zm11.38,0L14,19h6.84V17.28ZM12.73,19,12,16.54l.1-.06a1.19,1.19,0,0,0,.6-1,1.21,1.21,0,0,0-2.41,0,1.19,1.19,0,0,0,.6,1l.1.06L10.2,19ZM15.44,4.28h0l1.29-1.86A.26.26,0,0,0,16.68,2a.27.27,0,0,0-.37.09L15,4.07h0a9.32,9.32,0,0,0-3.5-.67,9.6,9.6,0,0,0-3.56.68l-1.36-2A.27.27,0,0,0,6.17,2a.26.26,0,0,0,0,.37l1.31,1.9a6.63,6.63,0,0,0-4,5.84H4.93C4.93,7.28,7.86,5,11.45,5S18,7.28,18,10.15h1.55A6.64,6.64,0,0,0,15.44,4.28Z" fill="#fff" fill-rule="evenodd"/></svg>
